<svg xmlns="http://www.w3.org/2000/svg" width="94" height="34" fill="none">
  <path fill="#000" d="M44.156 7.32h.984l.824 5.68h-1.136l-.176-1.416H42.82L42.052 13h-1.136l3.24-5.68Zm.472 3.488-.248-2.232-1.216 2.232h1.464Zm2.79 2.256c-.267 0-.475-.061-.625-.184-.144-.128-.216-.31-.216-.544 0-.048.003-.096.008-.144.01-.053.019-.107.024-.16l1.04-4.872h1.064l-.952 4.496-.016.08v.08c0 .219.11.328.328.328.059 0 .126-.01.2-.032.08-.021.155-.048.224-.08l-.032.816c-.15.07-.322.123-.52.16a2.877 2.877 0 0 1-.528.056Zm3.309.016c-.352 0-.659-.075-.92-.224a1.572 1.572 0 0 1-.592-.632 2.063 2.063 0 0 1-.2-.92c0-.347.066-.675.2-.984.133-.31.32-.581.56-.816.24-.24.52-.427.84-.56a2.58 2.58 0 0 1 1.04-.208c.304 0 .568.045.792.136.224.09.397.224.52.4.122.17.184.381.184.632 0 .443-.203.779-.608 1.008-.4.23-1.003.344-1.808.344-.16 0-.334-.003-.52-.008-.187-.01-.39-.027-.608-.048l.136-.672c.192.016.368.03.528.04.16.005.317.008.472.008.346 0 .618-.024.816-.072.202-.048.35-.117.44-.208a.438.438 0 0 0 .136-.32.387.387 0 0 0-.08-.256.455.455 0 0 0-.224-.152.86.86 0 0 0-.328-.056c-.208 0-.4.05-.576.152-.17.096-.32.23-.448.4s-.227.365-.296.584a2.29 2.29 0 0 0-.104.696c0 .181.03.347.088.496a.757.757 0 0 0 .28.336c.122.08.28.12.472.12.213 0 .413-.05.6-.152.192-.101.344-.243.456-.424l.848.264a2.19 2.19 0 0 1-.544.568 2.89 2.89 0 0 1-.736.392 2.54 2.54 0 0 1-.816.136Zm3.911-2.168-.96-2.104h1.096l.536 1.312.04.144.096-.144 1.112-1.312h1.096l-1.856 2.104.984 2.088h-1.104l-.56-1.304-.04-.136-.096.136L53.862 13h-1.104l1.88-2.088Zm5.36 2.128a.798.798 0 0 1-.395-.092.643.643 0 0 1-.244-.256.737.737 0 0 1-.084-.348.74.74 0 0 1 .08-.352.996.996 0 0 1 .22-.276c.093-.083.196-.159.308-.228.112-.07.226-.139.344-.208l.24.344c-.15.075-.273.145-.372.212a.856.856 0 0 0-.224.208.396.396 0 0 0-.076.24c0 .112.033.197.1.256a.356.356 0 0 0 .244.088c.106 0 .214-.03.324-.092.11-.061.212-.15.308-.264.099-.115.182-.25.252-.408.072-.16.124-.336.156-.528h.444a2.52 2.52 0 0 1-.252.72 2.12 2.12 0 0 1-.396.536 1.785 1.785 0 0 1-.48.332 1.18 1.18 0 0 1-.496.116Zm.037-1.456a3.064 3.064 0 0 1-.164-.26c-.04-.077-.07-.15-.092-.216a.728.728 0 0 1-.028-.196.68.68 0 0 1 .124-.404.947.947 0 0 1 .764-.384.77.77 0 0 1 .296.056.613.613 0 0 1 .24.172c.07.075.12.168.152.28l-.372.208a.468.468 0 0 0-.144-.236.334.334 0 0 0-.22-.084.348.348 0 0 0-.292.148.264.264 0 0 0-.048.156c0 .035.008.072.024.112.016.04.041.088.076.144l.148.22 1.18 1.7h-.684l-.96-1.416Zm1.184-.248h.68l-.06.384h-.68l.06-.384Zm5.273-4.016h.984L68.3 13h-1.136l-.176-1.416h-1.832L64.388 13h-1.136l3.24-5.68Zm.472 3.488-.248-2.232-1.216 2.232h1.464Zm2.79 2.256c-.267 0-.476-.061-.625-.184-.144-.128-.216-.31-.216-.544 0-.048.003-.096.008-.144.01-.053.019-.107.024-.16l1.04-4.872h1.064l-.952 4.496-.016.08v.08c0 .219.11.328.328.328a.74.74 0 0 0 .2-.032c.08-.021.155-.048.224-.08l-.032.816c-.15.07-.323.123-.52.16a2.878 2.878 0 0 1-.528.056Zm3.309.016c-.352 0-.659-.075-.92-.224a1.571 1.571 0 0 1-.592-.632 2.062 2.062 0 0 1-.2-.92c0-.347.066-.675.2-.984.133-.31.32-.581.56-.816.24-.24.52-.427.84-.56a2.58 2.58 0 0 1 1.04-.208c.304 0 .568.045.792.136.224.09.397.224.52.4.122.17.184.381.184.632 0 .443-.203.779-.608 1.008-.4.23-1.003.344-1.808.344-.16 0-.334-.003-.52-.008-.187-.01-.39-.027-.608-.048l.136-.672c.192.016.368.03.528.04.16.005.317.008.472.008.346 0 .618-.024.816-.072.202-.048.349-.117.44-.208a.438.438 0 0 0 .136-.32.387.387 0 0 0-.08-.256.455.455 0 0 0-.224-.152.86.86 0 0 0-.328-.056c-.208 0-.4.05-.576.152-.171.096-.32.23-.448.4s-.227.365-.296.584c-.07.219-.104.45-.104.696 0 .181.029.347.088.496a.757.757 0 0 0 .28.336c.122.08.28.12.472.12.213 0 .413-.05.6-.152.192-.101.344-.243.456-.424l.848.264c-.139.213-.32.403-.544.568a2.87 2.87 0 0 1-.736.392 2.54 2.54 0 0 1-.816.136Zm3.911-2.168-.96-2.104h1.096l.536 1.312.04.144.096-.144 1.112-1.312h1.096l-1.856 2.104.984 2.088h-1.104l-.56-1.304-.04-.136-.096.136L76.198 13h-1.104l1.88-2.088Z"/>
  <path fill="#000" d="M31.205 24.32h.76l1.136 3.688 2.712-3.688h.752L35.357 30h-.72l.936-4.392-2.472 3.368h-.408l-1.04-3.368L30.717 30h-.72l1.208-5.68Zm7.089 5.76c-.347 0-.643-.077-.888-.232a1.55 1.55 0 0 1-.56-.64 2.044 2.044 0 0 1-.192-.896 2.54 2.54 0 0 1 .72-1.784 2.435 2.435 0 0 1 1.808-.776c.272 0 .512.043.72.128.213.085.379.21.496.376.117.165.176.373.176.624 0 .421-.187.741-.56.96-.373.219-.947.328-1.72.328-.144 0-.31-.003-.496-.008-.187-.01-.403-.027-.648-.048l.096-.48c.235.01.435.021.6.032.17.01.328.016.472.016.405 0 .725-.035.96-.104.235-.07.403-.165.504-.288a.617.617 0 0 0 .16-.416.516.516 0 0 0-.104-.336.574.574 0 0 0-.28-.192 1.244 1.244 0 0 0-.424-.064c-.267 0-.51.056-.728.168-.213.112-.4.264-.56.456-.155.192-.275.41-.36.656-.08.24-.12.49-.12.752 0 .219.037.424.112.616.075.187.19.339.344.456a.97.97 0 0 0 .584.168c.245 0 .485-.061.72-.184a1.46 1.46 0 0 0 .552-.512l.568.168a2.105 2.105 0 0 1-.504.544 2.54 2.54 0 0 1-.688.376 2.19 2.19 0 0 1-.76.136Zm4.593 0c-.326 0-.598-.08-.816-.24a1.36 1.36 0 0 1-.456-.624l-.169.784h-.623l1.24-5.84h.703l-.527 2.496c.218-.272.466-.49.744-.656.282-.165.578-.248.888-.248.309 0 .565.08.767.24.209.16.363.37.465.632.106.256.16.533.16.832 0 .352-.067.685-.2 1a2.846 2.846 0 0 1-.544.84 2.54 2.54 0 0 1-.76.576 1.958 1.958 0 0 1-.873.208Zm-.025-.608c.209 0 .411-.05.608-.152.198-.107.374-.248.529-.424.16-.181.285-.384.375-.608a1.81 1.81 0 0 0 .145-.704c0-.213-.04-.413-.12-.6a1.045 1.045 0 0 0-.328-.448.821.821 0 0 0-.536-.176 1.2 1.2 0 0 0-.544.136c-.176.09-.342.21-.496.36a2.89 2.89 0 0 0-.4.48l-.256 1.208c0 .17.045.328.136.472.096.139.22.25.375.336.155.08.326.12.512.12Zm3.605.584c-.218 0-.389-.053-.511-.16a.597.597 0 0 1-.184-.464c0-.043.002-.085.008-.128.01-.043.018-.085.023-.128l1.065-5.016h.695l-1.008 4.76-.016.08v.072c0 .23.12.344.36.344.06 0 .129-.008.209-.024a1.98 1.98 0 0 0 .232-.072l-.025.568a2.265 2.265 0 0 1-.423.12 2.2 2.2 0 0 1-.425.048Zm3.14.024c-.347 0-.643-.077-.889-.232a1.55 1.55 0 0 1-.56-.64 2.044 2.044 0 0 1-.191-.896 2.54 2.54 0 0 1 .72-1.784 2.435 2.435 0 0 1 1.808-.776 1.9 1.9 0 0 1 .72.128c.213.085.378.21.495.376.118.165.176.373.176.624 0 .421-.186.741-.56.96-.373.219-.946.328-1.72.328-.144 0-.309-.003-.495-.008-.187-.01-.403-.027-.648-.048l.096-.48c.234.01.434.021.6.032.17.01.328.016.471.016.406 0 .726-.035.96-.104.235-.07.403-.165.504-.288a.617.617 0 0 0 .16-.416.516.516 0 0 0-.103-.336.574.574 0 0 0-.28-.192 1.244 1.244 0 0 0-.425-.064 1.57 1.57 0 0 0-.727.168c-.214.112-.4.264-.56.456-.155.192-.275.41-.36.656-.08.24-.12.49-.12.752 0 .219.037.424.111.616.075.187.19.339.345.456a.97.97 0 0 0 .584.168c.245 0 .485-.061.72-.184.234-.128.418-.299.551-.512l.569.168a2.105 2.105 0 0 1-.505.544 2.54 2.54 0 0 1-.688.376c-.245.09-.498.136-.76.136Zm5.392-4.256h.64l-.192.896a2.368 2.368 0 0 1 1.16-.848c.23-.08.46-.12.688-.12.224 0 .403.043.536.128.134.08.23.195.288.344.06.144.089.315.089.512 0 .117-.011.24-.032.368a6.162 6.162 0 0 1-.065.4L57.584 30h-.705l.497-2.336a2.68 2.68 0 0 0 .072-.6c0-.235-.048-.405-.145-.512-.095-.112-.237-.168-.423-.168a1.28 1.28 0 0 0-.56.144 2.138 2.138 0 0 0-.553.392 1.99 1.99 0 0 0-.416.56L54.817 30h-.705L55 25.824Zm5.276 4.256c-.31 0-.576-.077-.8-.232a1.53 1.53 0 0 1-.512-.632 2.142 2.142 0 0 1-.176-.872c0-.336.06-.659.184-.968.128-.31.298-.584.512-.824.218-.245.466-.44.744-.584.277-.144.568-.216.872-.216.32 0 .586.088.8.264.213.176.362.39.448.64l.184-.832h.704l-.704 3.312a.773.773 0 0 1-.016.056v.048c0 .096.058.147.176.152l-.128.608c-.06.005-.112.01-.16.016a.495.495 0 0 1-.12.016c-.15 0-.264-.035-.344-.104a.336.336 0 0 1-.112-.256c0-.032.002-.07.008-.112a4.229 4.229 0 0 1 .064-.344 2.287 2.287 0 0 1-.76.632 1.843 1.843 0 0 1-.864.232Zm.304-.608c.117 0 .242-.024.376-.072.138-.048.272-.115.4-.2.133-.085.253-.184.36-.296a1.28 1.28 0 0 0 .24-.368l.248-1.2a1.047 1.047 0 0 0-.184-.488 1.127 1.127 0 0 0-.376-.352.855.855 0 0 0-.464-.136 1.26 1.26 0 0 0-.632.168c-.198.107-.374.25-.528.432a2.32 2.32 0 0 0-.36.608 1.8 1.8 0 0 0-.128.664c0 .23.042.437.128.624.085.187.205.336.36.448a.95.95 0 0 0 .56.168Zm5.017-3.648h.728l.664 3.56c.171-.219.334-.437.488-.656a13.9 13.9 0 0 0 .432-.664l-.56-2.24h.728l.32 1.352a7.36 7.36 0 0 0 .296-.672c.091-.23.166-.456.224-.68h.672a7.394 7.394 0 0 1-.408 1.112c-.165.368-.357.736-.576 1.104l.328 1.344a12.809 12.809 0 0 0 1.288-2.136c.118-.24.219-.477.304-.712.091-.24.166-.477.224-.712h.672a9.505 9.505 0 0 1-.872 2.088c-.389.693-.853 1.39-1.392 2.088h-.76l-.296-1.176a12.79 12.79 0 0 1-.424.592c-.149.192-.304.387-.464.584h-.76l-.856-4.176Zm5.469 5.4c.224-.032.405-.075.544-.128a.949.949 0 0 0 .376-.232c.107-.101.221-.243.344-.424l.232-.352-.808-4.264h.728l.576 3.544.272-.448c.224-.368.413-.69.568-.968.155-.277.285-.53.392-.76a6.41 6.41 0 0 0 .28-.68c.075-.219.144-.448.208-.688h.696c-.07.256-.147.496-.232.72a9.4 9.4 0 0 1-.304.704c-.117.245-.267.523-.448.832-.176.304-.397.67-.664 1.096l-.64 1.032a7.158 7.158 0 0 1-.512.736c-.16.203-.32.365-.48.488-.155.123-.317.21-.488.264a1.76 1.76 0 0 1-.544.096l-.096-.568Zm5.216-5.4h.64l-.192.896c.213-.299.47-.533.768-.704.298-.176.602-.264.912-.264.208 0 .381.04.52.12a.79.79 0 0 1 .328.344c.075.15.114.333.12.552.165-.224.339-.41.52-.56.181-.15.373-.261.576-.336.203-.08.408-.12.616-.12.23 0 .41.043.544.128.133.085.23.205.288.36.064.15.096.325.096.528 0 .112-.008.23-.024.352-.016.123-.037.25-.064.384L81.393 30h-.704l.496-2.336c.048-.224.072-.419.072-.584 0-.235-.05-.408-.152-.52-.096-.117-.237-.176-.424-.176-.176 0-.352.048-.528.144-.176.09-.342.219-.496.384-.15.165-.278.357-.384.576L78.745 30h-.704l.496-2.336a2.486 2.486 0 0 0 .072-.592c0-.235-.048-.408-.144-.52-.096-.112-.237-.168-.424-.168-.262 0-.523.101-.784.304a2.173 2.173 0 0 0-.624.792L76.097 30h-.704l.888-4.176Zm7.062 0h.704L83.16 30h-.704l.888-4.176Zm.352-1.664h.704l-.184.88h-.704l.184-.88Zm2.189 5.92c-.31 0-.576-.077-.8-.232a1.53 1.53 0 0 1-.512-.632 2.14 2.14 0 0 1-.176-.872c0-.336.061-.659.184-.968.128-.31.299-.584.512-.824.219-.245.467-.44.744-.584.277-.144.568-.216.872-.216.32 0 .587.088.8.264.213.176.363.39.448.64l.184-.832h.704l-.704 3.312a.828.828 0 0 1-.016.056v.048c0 .096.059.147.176.152l-.128.608c-.059.005-.112.01-.16.016a.495.495 0 0 1-.12.016c-.15 0-.264-.035-.344-.104a.336.336 0 0 1-.112-.256.98.98 0 0 1 .008-.112 4.096 4.096 0 0 1 .064-.344 2.288 2.288 0 0 1-.76.632 1.844 1.844 0 0 1-.864.232Zm.304-.608c.117 0 .243-.024.376-.072a1.76 1.76 0 0 0 .4-.2c.133-.085.253-.184.36-.296.107-.117.187-.24.24-.368l.248-1.2a1.048 1.048 0 0 0-.184-.488 1.128 1.128 0 0 0-.376-.352.855.855 0 0 0-.464-.136 1.26 1.26 0 0 0-.632.168c-.197.107-.373.25-.528.432-.15.181-.27.384-.36.608-.085.219-.128.44-.128.664 0 .23.043.437.128.624s.205.336.36.448c.16.112.347.168.56.168Zm3.811-3.648h.657l-.209.968c.203-.288.432-.523.688-.704.262-.181.52-.272.776-.272a.78.78 0 0 1 .12.008c.038 0 .067.003.088.008l-.127.608a1.85 1.85 0 0 0-.937.272 1.86 1.86 0 0 0-.696.712L89.816 30h-.704L90 25.824Z" opacity=".7"/>
  <g filter="url(#a)" opacity=".7">
    <mask id="b" fill="#fff">
      <path d="M26.165 16.165c-.429-.365-1.146-2.717-1.257-3.276.432-.317.824-.86.02-2.253-.764-1.325-.604-2.073-.476-2.675a4.49 4.49 0 0 0 .08-.45c.07-.68-.87-2.24-1.24-2.82l.755-1.038a.28.28 0 0 0 .048-.22.289.289 0 0 0-.135-.185C23.734 3.115 18.37 0 12.56 0 9.114 0 6.247 1.107 4.04 3.291 1.77 5.537-.382 8.784.059 12.796c.016.143.038.288.061.433h6.526a.288.288 0 0 0 .292-.284v-.922a.288.288 0 0 0-.292-.283h-.622a.14.14 0 0 1-.14-.137V9.116c0-.075.062-.136.14-.136h9.353c.077 0 .14.061.14.136v.167c0 .157.131.283.293.283h.796a.288.288 0 0 0 .292-.283l1.34.128v.336c0 .119.077.225.192.266l.723.259v.323l-.746.343a.283.283 0 0 0-.168.256v.257l-1.34.114a.287.287 0 0 0-.293-.283h-.796a.287.287 0 0 0-.292.283v.354a.139.139 0 0 1-.14.136h-.404a.288.288 0 0 0-.292.284v.14a.14.14 0 0 1-.14.136h-3.076a.288.288 0 0 0-.292.283c0 .157.13.284.292.284a.14.14 0 0 1 .141.137v.735a.14.14 0 0 1-.14.137.288.288 0 0 0-.293.284v.105c0 .156.13.283.292.283a.14.14 0 0 1 .141.136v.736a.14.14 0 0 1-.14.137h-.663a.288.288 0 0 0-.292.283v1.156a.14.14 0 0 1-.141.137.287.287 0 0 0-.292.283c0 .157.13.284.292.284h1.283c.078 0 .14.06.14.136v3.047a.14.14 0 0 1-.14.137H6.645a.14.14 0 0 1-.141-.137v-3.046a.14.14 0 0 1 .141-.137.288.288 0 0 0 .292-.284V16a.288.288 0 0 0-.292-.284H.822a14.632 14.632 0 0 0 1.08 2.102c.064.103.113.18.137.227.062.12.174.312.329.578.739 1.266 2.469 4.232 2.527 6.098.07 2.221-1.976 6.837-1.997 6.883a.278.278 0 0 0 .023.268c.054.08.146.128.245.128H17.89a.298.298 0 0 0 .21-.087.278.278 0 0 0 .081-.206l-.07-1.99c.074-.249.679-1.953 3.405-1.953.216 0 .444.011.677.032.032.003.064 0 .096-.007.06-.014 1.46-.355 1.947-1.356.248-.509.217-1.082-.093-1.704-.17-.341-.286-.587-.366-.763.558-.146 1.32-.55 1.185-1.332-.05-.294-.138-.494-.24-.628a.917.917 0 0 0 .284-.394.638.638 0 0 0-.07-.547c-.438-.718-.474-1.018-.467-1.116l.026-.001c.141 0 .36.036.591.073.317.052.676.11 1.013.11.296 0 .534-.045.727-.139.161-.078.364-.26.42-.68.122-.93-.55-2.697-1.08-3.148Zm.501 3.075c-.02.154-.066.228-.102.246-.108.053-.265.08-.466.08-.288 0-.621-.054-.916-.103a4.58 4.58 0 0 0-.687-.08c-.085 0-.343 0-.488.187-.253.328-.118.895.427 1.785.029.047.021.069.017.083-.04.117-.266.267-.446.343a.276.276 0 0 0-.17.385.3.3 0 0 0 .38.145c.013 0 .113.078.172.417.07.41-.468.61-.75.686-.11-.122-.2-.169-.309-.169-.1 0-.204.056-.257.138-.095.148-.139.215.546 1.593.233.466.262.864.092 1.214-.326.673-1.297.977-1.514 1.037a7.977 7.977 0 0 0-.68-.03c-3.387 0-3.977 2.403-3.983 2.427a.295.295 0 0 0-.007.071l.063 1.738H3.605c.505-1.193 1.935-4.753 1.874-6.73-.063-2.005-1.779-4.946-2.603-6.36-.146-.248-.26-.444-.315-.551a4.436 4.436 0 0 0-.16-.266 14.02 14.02 0 0 1-.686-1.243h4.638v1.225a.705.705 0 0 0-.433.644v3.047c0 .388.326.703.725.703h5.009c.4 0 .725-.315.725-.703v-3.047a.715.715 0 0 0-.725-.704h-.573a.675.675 0 0 0 .014-.137v-.872h.37c.4 0 .726-.316.726-.704v-.736a.687.687 0 0 0-.189-.472.69.69 0 0 0 .19-.473v-.735a.703.703 0 0 0-.015-.137h2.364a.72.72 0 0 0 .71-.56h.125c.4 0 .725-.316.725-.704v-.256h.213v.186c0 .156.13.283.292.283l1.746-.212s.434-.101.434-.257l.036-.289.748-.343a.283.283 0 0 0 .167-.256v-.02h1.299a.288.288 0 0 0 .292-.283.287.287 0 0 0-.292-.284h-1.3v-.113a.284.284 0 0 0-.19-.266l-.724-.258s-.036-.258-.036-.415c0-.156-.434-.21-.434-.21l-1.747-.208a.288.288 0 0 0-.292.283v.135h-.212v-.019a.715.715 0 0 0-.725-.703H6.023c-.4 0-.725.315-.725.703v2.487c0 .388.326.704.725.704h.33v.355H.643c-.376-3.78 1.664-6.847 3.814-8.974C6.55 1.618 9.276.567 12.559.567c4.921 0 9.658 2.383 10.825 3.014l-.68.936a.275.275 0 0 0-.01.315c.548.838 1.3 2.206 1.256 2.622-.012.119-.04.252-.07.392-.14.657-.332 1.557.54 3.066.658 1.142.33 1.382.134 1.526-.103.075-.244.179-.244.367 0 .214.795 3.211 1.47 3.785.368.313.988 1.882.886 2.65Z"/>
    </mask>
    <path fill="#000" d="M26.165 16.165c-.429-.365-1.146-2.717-1.257-3.276.432-.317.824-.86.02-2.253-.764-1.325-.604-2.073-.476-2.675a4.49 4.49 0 0 0 .08-.45c.07-.68-.87-2.24-1.24-2.82l.755-1.038a.28.28 0 0 0 .048-.22.289.289 0 0 0-.135-.185C23.734 3.115 18.37 0 12.56 0 9.114 0 6.247 1.107 4.04 3.291 1.77 5.537-.382 8.784.059 12.796c.016.143.038.288.061.433h6.526a.288.288 0 0 0 .292-.284v-.922a.288.288 0 0 0-.292-.283h-.622a.14.14 0 0 1-.14-.137V9.116c0-.075.062-.136.14-.136h9.353c.077 0 .14.061.14.136v.167c0 .157.131.283.293.283h.796a.288.288 0 0 0 .292-.283l1.34.128v.336c0 .119.077.225.192.266l.723.259v.323l-.746.343a.283.283 0 0 0-.168.256v.257l-1.34.114a.287.287 0 0 0-.293-.283h-.796a.287.287 0 0 0-.292.283v.354a.139.139 0 0 1-.14.136h-.404a.288.288 0 0 0-.292.284v.14a.14.14 0 0 1-.14.136h-3.076a.288.288 0 0 0-.292.283c0 .157.13.284.292.284a.14.14 0 0 1 .141.137v.735a.14.14 0 0 1-.14.137.288.288 0 0 0-.293.284v.105c0 .156.13.283.292.283a.14.14 0 0 1 .141.136v.736a.14.14 0 0 1-.14.137h-.663a.288.288 0 0 0-.292.283v1.156a.14.14 0 0 1-.141.137.287.287 0 0 0-.292.283c0 .157.13.284.292.284h1.283c.078 0 .14.06.14.136v3.047a.14.14 0 0 1-.14.137H6.645a.14.14 0 0 1-.141-.137v-3.046a.14.14 0 0 1 .141-.137.288.288 0 0 0 .292-.284V16a.288.288 0 0 0-.292-.284H.822a14.632 14.632 0 0 0 1.08 2.102c.064.103.113.18.137.227.062.12.174.312.329.578.739 1.266 2.469 4.232 2.527 6.098.07 2.221-1.976 6.837-1.997 6.883a.278.278 0 0 0 .023.268c.054.08.146.128.245.128H17.89a.298.298 0 0 0 .21-.087.278.278 0 0 0 .081-.206l-.07-1.99c.074-.249.679-1.953 3.405-1.953.216 0 .444.011.677.032.032.003.064 0 .096-.007.06-.014 1.46-.355 1.947-1.356.248-.509.217-1.082-.093-1.704-.17-.341-.286-.587-.366-.763.558-.146 1.32-.55 1.185-1.332-.05-.294-.138-.494-.24-.628a.917.917 0 0 0 .284-.394.638.638 0 0 0-.07-.547c-.438-.718-.474-1.018-.467-1.116l.026-.001c.141 0 .36.036.591.073.317.052.676.11 1.013.11.296 0 .534-.045.727-.139.161-.078.364-.26.42-.68.122-.93-.55-2.697-1.08-3.148Zm.501 3.075c-.02.154-.066.228-.102.246-.108.053-.265.08-.466.08-.288 0-.621-.054-.916-.103a4.58 4.58 0 0 0-.687-.08c-.085 0-.343 0-.488.187-.253.328-.118.895.427 1.785.029.047.021.069.017.083-.04.117-.266.267-.446.343a.276.276 0 0 0-.17.385.3.3 0 0 0 .38.145c.013 0 .113.078.172.417.07.41-.468.61-.75.686-.11-.122-.2-.169-.309-.169-.1 0-.204.056-.257.138-.095.148-.139.215.546 1.593.233.466.262.864.092 1.214-.326.673-1.297.977-1.514 1.037a7.977 7.977 0 0 0-.68-.03c-3.387 0-3.977 2.403-3.983 2.427a.295.295 0 0 0-.007.071l.063 1.738H3.605c.505-1.193 1.935-4.753 1.874-6.73-.063-2.005-1.779-4.946-2.603-6.36-.146-.248-.26-.444-.315-.551a4.436 4.436 0 0 0-.16-.266 14.02 14.02 0 0 1-.686-1.243h4.638v1.225a.705.705 0 0 0-.433.644v3.047c0 .388.326.703.725.703h5.009c.4 0 .725-.315.725-.703v-3.047a.715.715 0 0 0-.725-.704h-.573a.675.675 0 0 0 .014-.137v-.872h.37c.4 0 .726-.316.726-.704v-.736a.687.687 0 0 0-.189-.472.69.69 0 0 0 .19-.473v-.735a.703.703 0 0 0-.015-.137h2.364a.72.72 0 0 0 .71-.56h.125c.4 0 .725-.316.725-.704v-.256h.213v.186c0 .156.13.283.292.283l1.746-.212s.434-.101.434-.257l.036-.289.748-.343a.283.283 0 0 0 .167-.256v-.02h1.299a.288.288 0 0 0 .292-.283.287.287 0 0 0-.292-.284h-1.3v-.113a.284.284 0 0 0-.19-.266l-.724-.258s-.036-.258-.036-.415c0-.156-.434-.21-.434-.21l-1.747-.208a.288.288 0 0 0-.292.283v.135h-.212v-.019a.715.715 0 0 0-.725-.703H6.023c-.4 0-.725.315-.725.703v2.487c0 .388.326.704.725.704h.33v.355H.643c-.376-3.78 1.664-6.847 3.814-8.974C6.55 1.618 9.276.567 12.559.567c4.921 0 9.658 2.383 10.825 3.014l-.68.936a.275.275 0 0 0-.01.315c.548.838 1.3 2.206 1.256 2.622-.012.119-.04.252-.07.392-.14.657-.332 1.557.54 3.066.658 1.142.33 1.382.134 1.526-.103.075-.244.179-.244.367 0 .214.795 3.211 1.47 3.785.368.313.988 1.882.886 2.65Z"/>
    <path stroke="#000" stroke-width="2" d="M26.165 16.165c-.429-.365-1.146-2.717-1.257-3.276.432-.317.824-.86.02-2.253-.764-1.325-.604-2.073-.476-2.675a4.49 4.49 0 0 0 .08-.45c.07-.68-.87-2.24-1.24-2.82l.755-1.038a.28.28 0 0 0 .048-.22.289.289 0 0 0-.135-.185C23.734 3.115 18.37 0 12.56 0 9.114 0 6.247 1.107 4.04 3.291 1.77 5.537-.382 8.784.059 12.796c.016.143.038.288.061.433h6.526a.288.288 0 0 0 .292-.284v-.922a.288.288 0 0 0-.292-.283h-.622a.14.14 0 0 1-.14-.137V9.116c0-.075.062-.136.14-.136h9.353c.077 0 .14.061.14.136v.167c0 .157.131.283.293.283h.796a.288.288 0 0 0 .292-.283l1.34.128v.336c0 .119.077.225.192.266l.723.259v.323l-.746.343a.283.283 0 0 0-.168.256v.257l-1.34.114a.287.287 0 0 0-.293-.283h-.796a.287.287 0 0 0-.292.283v.354a.139.139 0 0 1-.14.136h-.404a.288.288 0 0 0-.292.284v.14a.14.14 0 0 1-.14.136h-3.076a.288.288 0 0 0-.292.283c0 .157.13.284.292.284a.14.14 0 0 1 .141.137v.735a.14.14 0 0 1-.14.137.288.288 0 0 0-.293.284v.105c0 .156.13.283.292.283a.14.14 0 0 1 .141.136v.736a.14.14 0 0 1-.14.137h-.663a.288.288 0 0 0-.292.283v1.156a.14.14 0 0 1-.141.137.287.287 0 0 0-.292.283c0 .157.13.284.292.284h1.283c.078 0 .14.06.14.136v3.047a.14.14 0 0 1-.14.137H6.645a.14.14 0 0 1-.141-.137v-3.046a.14.14 0 0 1 .141-.137.288.288 0 0 0 .292-.284V16a.288.288 0 0 0-.292-.284H.822a14.632 14.632 0 0 0 1.08 2.102c.064.103.113.18.137.227.062.12.174.312.329.578.739 1.266 2.469 4.232 2.527 6.098.07 2.221-1.976 6.837-1.997 6.883a.278.278 0 0 0 .023.268c.054.08.146.128.245.128H17.89a.298.298 0 0 0 .21-.087.278.278 0 0 0 .081-.206l-.07-1.99c.074-.249.679-1.953 3.405-1.953.216 0 .444.011.677.032.032.003.064 0 .096-.007.06-.014 1.46-.355 1.947-1.356.248-.509.217-1.082-.093-1.704-.17-.341-.286-.587-.366-.763.558-.146 1.32-.55 1.185-1.332-.05-.294-.138-.494-.24-.628a.917.917 0 0 0 .284-.394.638.638 0 0 0-.07-.547c-.438-.718-.474-1.018-.467-1.116l.026-.001c.141 0 .36.036.591.073.317.052.676.11 1.013.11.296 0 .534-.045.727-.139.161-.078.364-.26.42-.68.122-.93-.55-2.697-1.08-3.148Zm.501 3.075c-.02.154-.066.228-.102.246-.108.053-.265.08-.466.08-.288 0-.621-.054-.916-.103a4.58 4.58 0 0 0-.687-.08c-.085 0-.343 0-.488.187-.253.328-.118.895.427 1.785.029.047.021.069.017.083-.04.117-.266.267-.446.343a.276.276 0 0 0-.17.385.3.3 0 0 0 .38.145c.013 0 .113.078.172.417.07.41-.468.61-.75.686-.11-.122-.2-.169-.309-.169-.1 0-.204.056-.257.138-.095.148-.139.215.546 1.593.233.466.262.864.092 1.214-.326.673-1.297.977-1.514 1.037a7.977 7.977 0 0 0-.68-.03c-3.387 0-3.977 2.403-3.983 2.427a.295.295 0 0 0-.007.071l.063 1.738H3.605c.505-1.193 1.935-4.753 1.874-6.73-.063-2.005-1.779-4.946-2.603-6.36-.146-.248-.26-.444-.315-.551a4.436 4.436 0 0 0-.16-.266 14.02 14.02 0 0 1-.686-1.243h4.638v1.225a.705.705 0 0 0-.433.644v3.047c0 .388.326.703.725.703h5.009c.4 0 .725-.315.725-.703v-3.047a.715.715 0 0 0-.725-.704h-.573a.675.675 0 0 0 .014-.137v-.872h.37c.4 0 .726-.316.726-.704v-.736a.687.687 0 0 0-.189-.472.69.69 0 0 0 .19-.473v-.735a.703.703 0 0 0-.015-.137h2.364a.72.72 0 0 0 .71-.56h.125c.4 0 .725-.316.725-.704v-.256h.213v.186c0 .156.13.283.292.283l1.746-.212s.434-.101.434-.257l.036-.289.748-.343a.283.283 0 0 0 .167-.256v-.02h1.299a.288.288 0 0 0 .292-.283.287.287 0 0 0-.292-.284h-1.3v-.113a.284.284 0 0 0-.19-.266l-.724-.258s-.036-.258-.036-.415c0-.156-.434-.21-.434-.21l-1.747-.208a.288.288 0 0 0-.292.283v.135h-.212v-.019a.715.715 0 0 0-.725-.703H6.023c-.4 0-.725.315-.725.703v2.487c0 .388.326.704.725.704h.33v.355H.643c-.376-3.78 1.664-6.847 3.814-8.974C6.55 1.618 9.276.567 12.559.567c4.921 0 9.658 2.383 10.825 3.014l-.68.936a.275.275 0 0 0-.01.315c.548.838 1.3 2.206 1.256 2.622-.012.119-.04.252-.07.392-.14.657-.332 1.557.54 3.066.658 1.142.33 1.382.134 1.526-.103.075-.244.179-.244.367 0 .214.795 3.211 1.47 3.785.368.313.988 1.882.886 2.65Z" mask="url(#b)"/>
  </g>
  <path stroke="#000" d="M37.895 18.5h44.21" opacity=".7"/>
  <defs>
    <filter id="a" width="29.261" height="34" x="0" y="0" color-interpolation-filters="sRGB" filterUnits="userSpaceOnUse">
      <feFlood flood-opacity="0" result="BackgroundImageFix"/>
      <feColorMatrix in="SourceAlpha" result="hardAlpha" values="0 0 0 0 0 0 0 0 0 0 0 0 0 0 0 0 0 0 127 0"/>
      <feOffset dx="1" dy="1"/>
      <feGaussianBlur stdDeviation=".5"/>
      <feComposite in2="hardAlpha" operator="out"/>
      <feColorMatrix values="0 0 0 0 0 0 0 0 0 0 0 0 0 0 0 0 0 0 0.5 0"/>
      <feBlend in2="BackgroundImageFix" result="effect1_dropShadow_306_148"/>
      <feBlend in="SourceGraphic" in2="effect1_dropShadow_306_148" result="shape"/>
    </filter>
  </defs>
</svg>