<svg xmlns="http://www.w3.org/2000/svg" width="22" height="24" fill="none">
  <path fill="#fff" d="M11 8.665c-.64 0-1.264.192-1.796.553a3.275 3.275 0 0 0-1.19 1.475 3.337 3.337 0 0 0-.184 1.899c.125.637.433 1.223.885 1.682.452.46 1.027.773 1.654.9a3.183 3.183 0 0 0 1.868-.187 3.245 3.245 0 0 0 1.45-1.21 3.325 3.325 0 0 0-.401-4.15A3.206 3.206 0 0 0 11 8.665Zm0 4.381a1.07 1.07 0 0 1-.599-.184 1.092 1.092 0 0 1-.396-.492 1.112 1.112 0 0 1 .233-1.194 1.06 1.06 0 0 1 1.174-.237c.197.083.365.223.484.403a1.108 1.108 0 0 1-.134 1.383 1.066 1.066 0 0 1-.762.321Zm9.492-.208a1.106 1.106 0 0 1-.27-.734v-.307c-.002-.27.094-.531.27-.734l.69-.788c.528-.603.82-1.383.818-2.191a3.461 3.461 0 0 0-.431-1.643l-.603-1.095a3.26 3.26 0 0 0-1.184-1.204 3.192 3.192 0 0 0-2.264-.374l-1.013.208h-.226a1.117 1.117 0 0 1-.528-.142l-.27-.164a1.086 1.086 0 0 1-.484-.482l-.334-.997A3.281 3.281 0 0 0 13.477.599 3.196 3.196 0 0 0 11.603 0h-1.206a3.195 3.195 0 0 0-1.864.582 3.28 3.28 0 0 0-1.196 1.565l-.334 1.04a1.092 1.092 0 0 1-.485.603l-.258.164c-.167.09-.351.138-.54.143h-.215l-.97-.274a3.234 3.234 0 0 0-.646-.066 3.19 3.19 0 0 0-1.644.417c-.502.285-.92.7-1.21 1.204L.43 6.474a3.332 3.332 0 0 0 .388 3.823l.69.788c.175.203.27.464.269.734v.307c.002.27-.094.531-.27.734l-.69.789A3.318 3.318 0 0 0 0 15.839c.005.576.153 1.141.431 1.643l.603 1.096c.284.5.692.915 1.184 1.203a3.191 3.191 0 0 0 2.264.374l1.013-.208h.215c.185.003.366.052.528.143l.27.164c.228.133.4.348.484.602l.345.953a3.28 3.28 0 0 0 1.186 1.592 3.196 3.196 0 0 0 1.874.599h1.206a3.196 3.196 0 0 0 1.874-.6 3.281 3.281 0 0 0 1.186-1.59l.334-.998c.084-.254.256-.468.485-.602l.258-.164c.167-.09.351-.138.54-.143h.215l1.023.208a3.191 3.191 0 0 0 2.264-.374 3.26 3.26 0 0 0 1.184-1.203l.603-1.095A3.46 3.46 0 0 0 22 15.796a3.317 3.317 0 0 0-.819-2.191l-.69-.767Zm-1.606 1.446.69.789a1.106 1.106 0 0 1 .118 1.281l-.603 1.096a1.087 1.087 0 0 1-.391.399 1.064 1.064 0 0 1-.535.148h-.216l-1.013-.208a3.186 3.186 0 0 0-2.273.373l-.258.153a3.276 3.276 0 0 0-1.455 1.807l-.323 1.008c-.072.218-.21.407-.394.54a1.066 1.066 0 0 1-.63.205h-1.206c-.226 0-.447-.071-.63-.205a1.095 1.095 0 0 1-.394-.54l-.323-1.008a3.275 3.275 0 0 0-1.455-1.807l-.269-.153a3.191 3.191 0 0 0-2.262-.373l-1.013.208h-.216c-.19.001-.376-.05-.54-.145a1.087 1.087 0 0 1-.397-.402l-.592-1.096a1.11 1.11 0 0 1-.151-.547 1.108 1.108 0 0 1 .226-.734l.69-.79a3.31 3.31 0 0 0 .818-2.19v-.306a3.318 3.318 0 0 0-.818-2.191l-.69-.767a1.106 1.106 0 0 1-.27-.734c.02-.19.086-.37.195-.526l.603-1.095a1.064 1.064 0 0 1 .927-.548h.215l1.013.208a3.191 3.191 0 0 0 2.262-.372l.27-.154A3.273 3.273 0 0 0 9.05 3.845l.323-1.008c.072-.217.21-.406.394-.54.183-.134.404-.205.63-.205h1.206c.226 0 .447.071.63.205.184.134.322.323.394.54l.323 1.008c.25.763.768 1.406 1.455 1.807l.269.154a3.192 3.192 0 0 0 2.262.372l1.013-.208h.215a1.077 1.077 0 0 1 .938.548l.592 1.095a1.109 1.109 0 0 1-.118 1.282l-.69.788a3.317 3.317 0 0 0-.818 2.191v.307c-.002.808.29 1.587.818 2.19"/>
</svg>